<svg width="12" height="15" viewBox="0 0 12 15" fill="none" xmlns="http://www.w3.org/2000/svg">
    <path fill-rule="evenodd" clip-rule="evenodd" d="M11.2251 5.98882C11.4589 4.42352 10.2671 3.58204 8.63749 3.0207L9.16612 0.90029L7.87506 0.578627L7.3604 2.64316C7.02145 2.5586 6.67296 2.47883 6.32666 2.39979L6.845 0.321663L5.55504 0L5.02604 2.11967C4.74518 2.05571 4.46947 1.99248 4.20184 1.92594L4.20331 1.91932L2.42332 1.47487L2.07997 2.85343C2.07997 2.85343 3.03761 3.0729 3.01739 3.0865C3.54014 3.217 3.63498 3.56293 3.61881 3.83717L3.01665 6.25277C3.05268 6.26196 3.09937 6.2752 3.15083 6.29578L3.01481 6.26196L2.1704 9.64586C2.10644 9.80467 1.94432 10.0429 1.57891 9.95245C1.59177 9.9712 0.640754 9.71828 0.640754 9.71828L0 11.1961L1.68 11.6148C1.86965 11.6623 2.05699 11.7112 2.24228 11.7596C2.36228 11.7909 2.48143 11.8219 2.59978 11.8523L2.06563 13.9973L3.35486 14.319L3.88422 12.1971C4.23603 12.2927 4.57791 12.3809 4.91245 12.464L4.38528 14.576L5.67598 14.8976L6.21013 12.757C8.41104 13.1735 10.0664 13.0055 10.7623 11.0152C11.3237 9.41243 10.7347 8.48787 9.57675 7.88462C10.4201 7.68941 11.0553 7.13468 11.2248 5.98882H11.2251ZM8.27568 10.1241C7.90927 11.5952 5.60617 10.9865 4.55334 10.7082C4.45906 10.6833 4.3748 10.6611 4.30286 10.6432L5.01162 7.80187C5.09955 7.82381 5.20698 7.84792 5.32868 7.87523C6.41788 8.11964 8.65004 8.62054 8.27605 10.1241H8.27568ZM5.54754 6.55684C6.42603 6.7912 8.3409 7.30206 8.67448 5.96571C9.01552 4.59857 7.1535 4.18652 6.24412 3.98527C6.14189 3.96265 6.05169 3.94269 5.97802 3.92434L5.33543 6.50132C5.39624 6.51647 5.4676 6.53551 5.54754 6.55684Z" fill="#CAFF33"/>
</svg>
