<svg width="11" height="17" viewBox="0 0 11 17" fill="none" xmlns="http://www.w3.org/2000/svg">
    <path fill-rule="evenodd" clip-rule="evenodd" d="M3.81642 0C4.76878 0 5.71763 0 6.66999 0C6.61397 0.64424 6.55445 1.29198 6.50193 1.93622C7.61184 2.01675 8.69374 2.37389 9.66711 2.90258C9.24695 3.95998 8.82329 5.01737 8.39963 6.07477C7.58033 5.37801 6.50193 4.99286 5.42702 5.00687C5.15742 5.01387 4.87732 5.06639 4.65324 5.22045C4.50618 5.32199 4.39764 5.47954 4.36613 5.65461C4.34162 5.79466 4.34862 5.95222 4.42565 6.07827C4.51318 6.21832 4.66724 6.30235 4.8213 6.35487C5.13642 6.46691 5.47604 6.47391 5.80517 6.50893C6.57895 6.60346 7.35624 6.73651 8.08802 7.01312C8.65523 7.2302 9.19793 7.55582 9.58658 8.032C9.95421 8.46966 10.1678 9.02287 10.2483 9.59008C10.3429 10.2448 10.3148 10.9241 10.1118 11.5613C9.95421 12.0725 9.68461 12.5487 9.33448 12.9513C8.60971 13.7916 7.54532 14.2958 6.45291 14.4254C6.48792 15.1151 6.52994 15.8014 6.56845 16.4912C5.66511 16.4912 4.76528 16.4912 3.86544 16.4912C3.90046 15.8084 3.94597 15.1256 3.97748 14.4429C3.25271 14.4184 2.53495 14.2573 1.85919 14.0017C1.20445 13.7531 0.581217 13.424 0 13.0389C0.427159 11.9395 0.854319 10.84 1.28498 9.73713C1.77166 10.1468 2.28985 10.5284 2.85707 10.819C3.46629 11.1307 4.14205 11.3302 4.8283 11.3372C5.15392 11.3407 5.49005 11.3232 5.79816 11.2112C5.98723 11.1412 6.1728 11.0186 6.25683 10.826C6.34437 10.623 6.33736 10.3674 6.20432 10.1853C6.10978 10.0628 5.97673 9.97872 5.83668 9.9192C5.64761 9.84217 5.45153 9.80016 5.25196 9.76864C4.51669 9.6496 3.77791 9.55156 3.06714 9.32048C2.49643 9.13491 1.93972 8.87581 1.48455 8.47666C1.19745 8.22807 0.959358 7.92346 0.791295 7.58033C0.539201 7.06914 0.444666 6.49142 0.451669 5.92421C0.451669 5.29047 0.581217 4.64623 0.896334 4.08953C1.16944 3.59234 1.58609 3.18619 2.05527 2.87457C2.62248 2.49993 3.25621 2.24434 3.90046 2.03776C3.87244 1.35851 3.84443 0.679253 3.81642 0Z" fill="#CAFF33"/>
</svg>
