<svg width="12" height="16" viewBox="0 0 12 16" fill="none" xmlns="http://www.w3.org/2000/svg">
    <path d="M11.4934 15.2111L11.0954 13.4037C11.0728 13.2974 11.0159 13.2178 10.9248 13.165C10.8262 13.1118 10.7278 13.1044 10.6293 13.1424L10.5724 13.165L10.4358 13.199C10.3751 13.214 10.305 13.2312 10.2255 13.2501C10.1459 13.2691 10.0532 13.2879 9.94692 13.3069C9.84121 13.3259 9.72888 13.343 9.6117 13.3582C9.49427 13.373 9.36753 13.3865 9.231 13.3979C9.09442 13.4091 8.95816 13.4149 8.82163 13.4149C7.85907 13.4149 6.99311 13.1554 6.22395 12.6362C5.45466 12.1169 4.88813 11.414 4.52439 10.5274H8.92372C9.00726 10.5274 9.08303 10.4991 9.151 10.4421C9.21945 10.3854 9.26114 10.3154 9.27599 10.2317L9.54882 8.95844C9.57168 8.84508 9.54882 8.74263 9.48081 8.65161C9.40504 8.56058 9.31008 8.51503 9.19655 8.51503H3.97881C3.95607 7.99971 3.95607 7.60185 3.97881 7.32137H9.52645C9.73127 7.32137 9.8524 7.22294 9.89026 7.02588L10.1631 5.72988C10.1857 5.62381 10.1596 5.52538 10.0835 5.43436C10.0155 5.34341 9.9208 5.29774 9.79952 5.29774H4.47904C4.85799 4.44894 5.42635 3.78203 6.18433 3.29697C6.94222 2.81178 7.79863 2.56933 8.75354 2.56933C8.78396 2.5542 8.89565 2.55803 9.08877 2.58072C9.282 2.60334 9.3921 2.61289 9.4185 2.60907C9.44466 2.60533 9.54361 2.61676 9.71395 2.64312C9.88453 2.66963 9.96986 2.68293 9.96986 2.68293L10.1688 2.72267C10.2258 2.73414 10.2693 2.74346 10.2996 2.75114L10.3451 2.76245C10.4435 2.79291 10.5342 2.78335 10.6179 2.73414C10.7014 2.68473 10.7545 2.61094 10.7772 2.51243L11.2661 0.704897C11.2887 0.606348 11.2773 0.515404 11.2321 0.432065C11.1638 0.340961 11.0879 0.284141 11.0045 0.261485C10.3074 0.0872013 9.57192 0 8.79905 0C7.10117 0 5.58371 0.485182 4.24599 1.45515C2.9083 2.42519 1.98552 3.70614 1.47772 5.29762H0.363737C0.257582 5.29762 0.1705 5.33166 0.102253 5.39987C0.0342036 5.468 0 5.5552 0 5.66136V6.95735C0 7.06343 0.0340842 7.15063 0.102253 7.21868C0.17054 7.28697 0.257742 7.32093 0.363737 7.32093H1.12545C1.10256 7.68483 1.09894 8.08249 1.11399 8.51471H0.363737C0.265227 8.51471 0.179977 8.55067 0.107986 8.62266C0.0360352 8.69461 0 8.7799 0 8.87829V10.163C0 10.2616 0.0360352 10.3467 0.107986 10.4189C0.180017 10.4909 0.265227 10.5266 0.363737 10.5266H1.44376C1.92122 12.2015 2.82317 13.5336 4.14947 14.5226C5.47584 15.5119 7.02572 16.0062 8.79905 16.0062C8.94319 16.0062 9.08901 16.0027 9.23685 15.9948C9.38497 15.9872 9.52302 15.9757 9.65191 15.9608C9.78068 15.9457 9.9077 15.9289 10.0328 15.9098C10.1577 15.8907 10.2715 15.8721 10.3737 15.8528C10.476 15.834 10.5727 15.8151 10.6635 15.7963C10.7546 15.7771 10.836 15.7565 10.9081 15.7336C10.9801 15.7111 11.0404 15.6939 11.0899 15.6828C11.1392 15.6714 11.179 15.6579 11.2091 15.643L11.2661 15.6315C11.3495 15.6013 11.4139 15.5462 11.4593 15.4665C11.5048 15.3874 11.516 15.302 11.4934 15.2111Z" fill="#CAFF33"/>
</svg>
