<svg width="23" height="19" viewBox="0 0 23 19" fill="none" xmlns="http://www.w3.org/2000/svg">
    <path d="M9.64592 12.3802C8.97207 12.3802 8.57735 12.0008 8.57735 11.3201V10.5324C5.74711 10.3378 2.9265 9.75434 0 8.63591V7.0313C3.60037 8.6262 7.21037 9.19027 11.1381 9.19027C15.0754 9.19027 18.6854 8.6262 22.2857 7.0313V8.63591C19.3592 9.75434 16.5386 10.3378 13.7084 10.5324V11.3201C13.7084 12.0008 13.3136 12.3802 12.6398 12.3802H9.64592ZM2.97463 18.8473H19.3111C21.3038 18.8473 22.2857 17.8749 22.2857 15.8812V6.41862C22.2857 4.42495 21.3038 3.45244 19.3111 3.45244H2.97463C0.991545 3.45244 0 4.42495 0 6.41862V15.8812C0 17.8749 0.991545 18.8473 2.97463 18.8473ZM6.25733 4.29853H7.74946V2.57717C7.74946 1.83805 8.18266 1.41988 8.93354 1.41988H13.3522C14.1031 1.41988 14.5266 1.83805 14.5266 2.57717V4.27908H16.0188V2.68415C16.0188 0.855815 15.0657 0 13.3233 0H8.95276C7.30663 0 6.25733 0.855815 6.25733 2.68415V4.29853Z" fill="#B3B3B3"/>
</svg>
