<svg width="39" height="39" viewBox="0 0 39 39" fill="none" xmlns="http://www.w3.org/2000/svg">
    <rect width="38.1496" height="38.1496" rx="19.0748" fill="#CAFF33"/>
    <path fill-rule="evenodd" clip-rule="evenodd" d="M22.4049 11.0006C22.1116 11.3164 22.1299 11.8101 22.4457 12.1034L24.6311 14.1327L15.6936 14.1327C15.2626 14.1327 14.9132 14.482 14.9132 14.913C14.9132 15.344 15.2626 15.6933 15.6936 15.6933L24.6311 15.6933L22.4457 17.7226C22.1299 18.0159 22.1116 18.5096 22.4049 18.8254C22.6981 19.1412 23.1918 19.1595 23.5077 18.8663L27.1492 15.4848C27.3082 15.3372 27.3986 15.13 27.3986 14.913C27.3986 14.696 27.3082 14.4888 27.1492 14.3412L23.5077 10.9597C23.1918 10.6665 22.6981 10.6848 22.4049 11.0006ZM15.7452 19.3241C15.4519 19.0083 14.9582 18.99 14.6424 19.2833L11.0008 22.6647C10.8418 22.8124 10.7515 23.0196 10.7515 23.2365C10.7515 23.4535 10.8418 23.6607 11.0008 23.8084L14.6424 27.1898C14.9582 27.4831 15.4519 27.4648 15.7452 27.149C16.0384 26.8332 16.0201 26.3394 15.7043 26.0462L13.5189 24.0169H22.4565C22.8874 24.0169 23.2368 23.6675 23.2368 23.2365C23.2368 22.8056 22.8874 22.4562 22.4565 22.4562H13.5189L15.7043 20.4269C16.0201 20.1337 16.0384 19.6399 15.7452 19.3241Z" fill="#1C1C1C"/>
</svg>
